PathFileType	4	(X/Y/Z)	path1_14_0-593.trc
DataRate	CameraRate	NumFrames	NumMarkers	Units	OrigDataRate	OrigDataStartFrame	OrigNumFrames
30	30	5	22	m	30	518	593
Frame#	Time	Hip			RHip			RKnee			RAnkle			RBigToe			RSmallToe			RHeel			LHip			LKnee			LAnkle			LBigToe			LSmallToe			LHeel			Neck			Head			Nose			RShoulder			RElbow			RWrist			LShoulder			LElbow			LWrist		
		X1	Y1	Z1	X2	Y2	Z2	X3	Y3	Z3	X4	Y4	Z4	X5	Y5	Z5	X6	Y6	Z6	X7	Y7	Z7	X8	Y8	Z8	X9	Y9	Z9	X10	Y10	Z10	X11	Y11	Z11	X12	Y12	Z12	X13	Y13	Z13	X14	Y14	Z14	X15	Y15	Z15	X16	Y16	Z16	X17	Y17	Z17	X18	Y18	Z18	X19	Y19	Z19	X20	Y20	Z20	X21	Y21	Z21	X22	Y22	Z22
519	17.3	-2.3994541542933847	0.7998586733567006	0.837536005877053	-2.4041310345684117	0.7633345317923452	0.7493053747659661	-2.3531689598873786	0.43267880777596185	0.7351712949120544	-2.313381609807956	0.06778026190838618	0.7429738124102843	-2.4867861748784894	-0.023929525169682164	0.7323517363513703	-2.450925581521217	-0.03606389973457812	0.6886801267186365	-2.2692954951946276	0.004301368342009774	0.7541666584253217	-2.3937028046540747	0.7599003044490743	0.9156001491286342	-2.3538965646594994	0.4071962804563602	0.9061718779700182	-2.3219442250856126	0.05478250024609352	0.8803811846055223	-2.5512198904068932	-0.038627235723326395	0.8882717158653948	-2.551311688296683	-0.05901801212987713	0.9051531076779855	-2.2839700655227606	-0.013256149618205329	0.876040192120449	-2.368233377462721	1.441124848106619	0.8543558650573178	-2.416095062247698	1.63074078230576	0.8710584368985593	-2.483783291378154	1.4983998933318288	0.9269491624888223	-2.336194566241922	1.3407671232326386	0.6765769321501419	-2.2862419961764395	1.062853921840731	0.6414023958737864	-2.2956771144970007	0.8168187626217946	0.6368519784815063	-2.358074230777295	1.3172388272510178	1.0363229305354955	-2.353821722151695	1.0447746123144506	1.0499145854369607	-2.3865472225905133	0.7925279910986054	1.0426907473416567
520	17.333333333333332	-2.4005354502554668	0.799463572259566	0.8361710512854218	-2.404951536358118	0.7629462426570323	0.7479800830460763	-2.35354818902781	0.4319787235618493	0.7350894561241896	-2.3130256922124106	0.06727573847057927	0.7432618791269864	-2.486518302487621	-0.02449133493845259	0.7334292945853588	-2.450651334696131	-0.03645206789491372	0.6898840771303211	-2.2690970242221273	0.0035706896994937586	0.7541450544835386	-2.3954523901482863	0.7594501074008461	0.9142160102178589	-2.3550646343960437	0.4066255739415814	0.9053435891760558	-2.3224408914218357	0.055193799208681546	0.8808729536279755	-2.5419772611621285	-0.035624689942170655	0.8892889628654911	-2.550017047809228	-0.05773221199931221	0.9064864559487122	-2.2850683225159116	-0.013368298561421407	0.8764920536656619	-2.368728225029285	1.4404635351102038	0.8511448933439539	-2.414476977563952	1.6319577569366233	0.8677148425780863	-2.4829924310229994	1.4994821217721217	0.9244216565236558	-2.3362881909831836	1.3395605099418648	0.6735808406552912	-2.287442176136034	1.0612523760025452	0.6395376920064527	-2.2986316554477755	0.8160771263961639	0.6344049123108173	-2.3598180122183394	1.316965540286405	1.0343543617290907	-2.35605741127007	1.0453452644664174	1.0489193740090492	-2.3894218244763232	0.7956492026043993	1.0430277500578462
521	17.366666666666667	-2.40144099569717	0.7990980500850005	0.8349545137365065	-2.4053395852190884	0.7627479908018342	0.7470699335512145	-2.354126632485918	0.43135003644118197	0.7350388159460384	-2.312827552685931	0.06668065469643429	0.7435854343753774	-2.4862785263067804	-0.024936397993178587	0.7346638362343036	-2.4504756177869513	-0.03676833044383051	0.691020536984589	-2.2690428491781724	0.0026606403392230265	0.7543268187491042	-2.39692452684558	0.7592599423782712	0.9132199397879122	-2.35648186032166	0.4061326674523842	0.9049162568290658	-2.3229992297403377	0.055577824420335806	0.8813364568760774	-2.5315947328257367	-0.032395354817499666	0.8907092014623427	-2.548689650520311	-0.056425543663525764	0.907719566360388	-2.2865636738881054	-0.013322342102058021	0.8767432749115202	-2.3689549754141255	1.4396862723074997	0.8482557418474439	-2.412834945011887	1.63401877247838	0.8652802727436606	-2.4821659742303046	1.5004852117281333	0.9215155290313948	-2.336216569590039	1.33863837344177	0.670914239794229	-2.2880951045325477	1.0601283293560213	0.6375014104318358	-2.30089531708307	0.8157192807354592	0.6313769367650379	-2.3607992904159083	1.3167316501958821	1.03263900255684	-2.357948530646922	1.0457132426906783	1.0482766515329762	-2.391660669685047	0.7975303880331552	1.0435763394826933
522	17.4	-2.4021452753342816	0.7987976519358592	0.8339072493047603	-2.405234432462233	0.7626549056248163	0.7464852298404516	-2.354624185114878	0.43078609115308936	0.7348083135425126	-2.3128203350482646	0.06616599872628952	0.7437903037819815	-2.4860017413762487	-0.025203271432560105	0.7358128682631276	-2.4501994681048873	-0.03697164179964718	0.6918035625734378	-2.269108983793827	0.0017401457917228698	0.7546183550082105	-2.398081782267557	0.7592797935168175	0.9125194810639525	-2.358002583888699	0.4057404304784983	0.9047578093680128	-2.3236236816530806	0.0557900649793038	0.8816644029309851	-2.5233744126883355	-0.029904379464025785	0.8920023030575257	-2.5476220785477746	-0.055392748100006065	0.908524743709668	-2.288576953582201	-0.013296227358659514	0.8767128798800291	-2.3689603722834196	1.4388956399055226	0.8456407201659255	-2.411467833847941	1.637411850784247	0.862185044405418	-2.481386731686534	1.5014659250516125	0.9182608978028345	-2.335970095275862	1.3379125777827319	0.6685598770998216	-2.28836917289105	1.0592865973229004	0.6354758550420292	-2.302677225384654	0.8154042517308614	0.6284392569104172	-2.3613391973044777	1.3165380955211434	1.0310521743347911	-2.3594554174891247	1.0460367299719644	1.0477678307490261	-2.3934151394306364	0.7984440561308401	1.0439813409888816
523	17.433333333333334	-2.4026991810048837	0.7985721474457775	0.8330570461561999	-2.4047020268467536	0.762625812792933	0.7461960477349011	-2.354896329787914	0.43027165301667614	0.7343616006518244	-2.3129701868103445	0.06587147685212286	0.7437824216862242	-2.485635422589069	-0.025173201647086887	0.7366763827001863	-2.449768784530504	-0.036989367605055334	0.6921136190166651	-2.2692614054156333	0.0009617576956996843	0.7549067554090296	-2.399058375618247	0.7594461743607751	0.9120418883825436	-2.35948004731335	0.4055157175332084	0.9046910203367833	-2.3242841931295133	0.055825339916807486	0.8818247657474438	-2.518171204353081	-0.0283584584088029	0.8928793895542796	-2.546909613532377	-0.05480986578556471	0.908855147544577	-2.291029430807441	-0.013289413606498952	0.8763718728996067	-2.3688572635802285	1.4382018602706839	0.8432517544367277	-2.4109246874352923	1.6422212922567159	0.8554210625135802	-2.4807365025199144	1.5024312518442327	0.9147752617346578	-2.335617833095131	1.3373156630489134	0.6664880242235753	-2.2884813195373095	1.0585168439208834	0.6336271586667573	-2.3041620959407845	0.8148732382824907	0.6260930957397333	-2.3617369363757432	1.316461346791843	1.0295553239040665	-2.360579708812395	1.0464085633360225	1.0471289760752622	-2.394835990852209	0.7986467651771321	1.04397511307583
